<svg id="Layer_1" data-name="Layer 1" xmlns="http://www.w3.org/2000/svg" viewBox="0 0 582.88 582.88"><defs><style>.cls-1{fill:#fffffc;}</style></defs><path class="cls-1" d="M291.44,0C130.48,0,0,130.48,0,291.44S130.48,582.88,291.44,582.88,582.88,452.4,582.88,291.44,452.4,0,291.44,0Zm49.35,412-20.65,20.65a20.39,20.39,0,0,1-28.85,0L164.46,305.86a20.38,20.38,0,0,1,0-28.84L291.29,150.19a20.39,20.39,0,0,1,28.85,0l20.65,20.65a20.4,20.4,0,0,1,0,28.84L263.45,277a20.4,20.4,0,0,0,0,28.84l77.34,77.34A20.4,20.4,0,0,1,340.79,412Z"/></svg>