<svg id="mkLogo" data-name="Layer 1" xmlns="http://www.w3.org/2000/svg" viewBox="0 0 1383.18 756.56" fill="#FFFFFC"><path d="M0,340.56a10,10,0,0,0,10,10H21.19a15,15,0,0,1,15,15v350a15,15,0,0,1-15,15H10a10,10,0,0,0-10,10v6a10,10,0,0,0,10,10H36.19v0h130a20,20,0,0,0,20-20V415.85a3.28,3.28,0,0,1,1.93-3,64,64,0,0,1,18.39-4.95c22.8-2.59,42.68,15.54,42.68,38.48V736.56a20,20,0,0,0,20,20h130v0h26.19a10,10,0,0,0,10-10v-6a10,10,0,0,0-10-10H414.19a15,15,0,0,1-15-15V415.85a3.28,3.28,0,0,1,1.93-3,64,64,0,0,1,18.39-4.95c22.8-2.59,42.68,15.54,42.68,38.48V736.56a20,20,0,0,0,20,20h130v0h87v0H838.34A33.93,33.93,0,0,0,869,737.25l34.44-72.08a10,10,0,0,1,16.32-2.53L1000.61,749a23.76,23.76,0,0,0,17.36,7.53h194.91a10,10,0,0,0,10-10v-6a10,10,0,0,0-10-10h-8.72a35.46,35.46,0,0,1-25.87-11.21L983.17,510.93a8.64,8.64,0,0,1-1.49-9.62l61.19-128.08a39.82,39.82,0,0,1,35.94-22.67h59.3a10,10,0,0,0,10-10v-6a10,10,0,0,0-10-10h-132a10.37,10.37,0,0,0-9.35,5.9l-138,288.9a5,5,0,0,1-9.51-2.15l-.09-573.77V10a10,10,0,0,0-10-10h-16l-.5.37a103.68,103.68,0,0,1-13.12,11.27,103.19,103.19,0,0,1-44.63,18.43l-.85.13.85-.13-.85.13A620.67,620.67,0,0,1,673,36.68a10,10,0,0,0-10,10v6a10,10,0,0,0,10,10h11.19a15,15,0,0,1,15,15V695.52a35,35,0,0,1-35,35h-17a35,35,0,0,1-35-35V398a86.9,86.9,0,0,0-86.9-86.9c-1.69,0-3.37,0-5,.06l-1.78.05-3.19.1-2.25.1-2.36.13a246.22,246.22,0,0,0-121,40,3.29,3.29,0,0,1-4.58-.93,86.82,86.82,0,0,0-72.83-39.49,242.83,242.83,0,0,0-121.16,32.18,3.3,3.3,0,0,1-4.94-2.87h0v-42a10,10,0,0,0-10-10h-16a104.38,104.38,0,0,1-13.12,11.27,103.19,103.19,0,0,1-44.63,18.43l-.85.13.85-.13-.85.13A626.44,626.44,0,0,1,10,324.68a10,10,0,0,0-10,10Z"/><circle cx="1317.82" cy="691.21" r="65.36"/></svg>